<svg width="128" height="128" viewBox="0 0 128 128" fill="none" xmlns="http://www.w3.org/2000/svg">
  <rect x="8" y="8" width="112" height="112" rx="28" fill="#0F172A"/>
  <rect x="22" y="22" width="84" height="84" rx="20" fill="#1E293B" stroke="#334155" stroke-width="2"/>

  <rect x="32" y="34" width="6" height="42" rx="3" fill="#E2E8F0"/>
  <rect x="38" y="34" width="20" height="6" rx="3" fill="#E2E8F0"/>
  <rect x="38" y="52" width="16" height="6" rx="3" fill="#E2E8F0"/>

  <rect x="70" y="34" width="6" height="42" rx="3" fill="#E2E8F0"/>
  <path d="M76 34L86 52L96 34H102V76H96V46L86 64L76 46V76H70V34H76Z" fill="#E2E8F0"/>

  <rect x="30" y="84" width="68" height="14" rx="7" fill="#0B1220" stroke="#334155"/>
  <rect x="44" y="87" width="8" height="8" rx="2" fill="#CBD5E1"/>
  <rect x="56" y="87" width="8" height="8" rx="2" fill="#CBD5E1"/>
  <rect x="68" y="87" width="8" height="8" rx="2" fill="#CBD5E1"/>
</svg>
