<svg width="512" height="512" viewBox="0 0 512 512" fill="none" xmlns="http://www.w3.org/2000/svg">
  <rect width="512" height="512" rx="116" fill="#0F172A"/>
  <rect x="64" y="64" width="384" height="384" rx="92" fill="#111F39" stroke="#2A426D" stroke-width="10"/>

  <rect x="120" y="128" width="26" height="194" rx="13" fill="#6EE7B7"/>
  <rect x="146" y="128" width="92" height="24" rx="12" fill="#6EE7B7"/>
  <rect x="146" y="208" width="76" height="24" rx="12" fill="#6EE7B7"/>

  <rect x="278" y="128" width="26" height="194" rx="13" fill="#38BDF8"/>
  <path d="M304 128H333L372 201L411 128H434V322H411V189L372 258L333 189V322H304V128Z" fill="#38BDF8"/>

  <rect x="110" y="360" width="292" height="54" rx="27" fill="#0B1736" stroke="#2A426D" stroke-width="6"/>
  <rect x="172" y="373" width="32" height="30" rx="8" fill="#A7F3D0"/>
  <rect x="220" y="373" width="32" height="30" rx="8" fill="#6EE7B7"/>
  <rect x="268" y="373" width="32" height="30" rx="8" fill="#34D399"/>
</svg>
